<svg xmlns="http://www.w3.org/2000/svg" viewBox="0 0 314.95 406.59"><defs><style>.cls-1,.cls-2{fill:#00aac4;}.cls-2{font-size:41.93px;font-family:GloucesterMT-ExtraCondensed, Gloucester MT Extra Condensed;}.cls-3{letter-spacing:-0.01em;}.cls-4{letter-spacing:0em;}.cls-5{fill:none;stroke:#00aac4;stroke-miterlimit:10;stroke-width:5.38px;}</style></defs><g id="Layer_2" data-name="Layer 2"><g id="Capa_1" data-name="Capa 1"><path class="cls-1" d="M83.73,359.69c2.08-.19,4-.46,6.11-.66L257.21,178.88l57.55,62c.09-1.33.19-2.66.19-4q0-26.21-30.62-52.66-2.59-1.92-57.38-40.39-31-21.41-31.06-36.06,0-16.35,28-25.49,23.3-7.94,54.35-7.94,4.32,0,12.52.72c5.45.48,9.34.73,11.64.73,5.18,0,7.76-1.36,7.76-4.09a4.14,4.14,0,0,0-1.28-2.41q-41-45.91-52.21-63.47A11.9,11.9,0,0,0,246.36,0c-1.72,0-4.17.08-7.33.24Q152.33,7.46,92.79,31.5q-72.9,29.09-72.9,73.09,0,30.3,29.76,55.3,4.31,3.6,55.22,36.3,29.32,19.25,29.34,34.87,0,24.51-44.87,37-20.28,5.54-82.82,13.47c-4.32.48-6.47,1.6-6.47,3.36q0,7.45,34.07,41.24t44,33.78C79.56,359.93,81.43,359.84,83.73,359.69Z"/><rect class="cls-1" x="226.66" y="262" width="25.76" height="25.76"/><rect class="cls-1" x="262" y="262" width="25.76" height="25.76"/><rect class="cls-1" x="226.66" y="299.54" width="25.76" height="25.76"/><rect class="cls-1" x="262" y="299.54" width="25.76" height="25.76"/><text class="cls-2" transform="translate(170.69 397.56) scale(1.01 1)">Time Is Li<tspan class="cls-3" x="115.41" y="0">f</tspan><tspan class="cls-4" x="123.19" y="0">e</tspan></text><line class="cls-5" x1="0.05" y1="389.9" x2="150.83" y2="387.34"/></g></g></svg>